<?xml version="1.0" encoding="utf-8"?>
<svg version="1.1" id="a" xmlns="http://www.w3.org/2000/svg" xmlns:xlink="http://www.w3.org/1999/xlink" x="0px" y="0px"
	 viewBox="0 0 391.2 507.8" style="enable-background:new 0 0 391.2 507.8;" xml:space="preserve">
<style type="text/css">
	.st0{fill:#FACBAF;stroke:#EDB293;stroke-width:0.75;stroke-miterlimit:10;}
	.st1{fill:#FACBAF;}
	.st2{clip-path:url(#SVGID_00000075120093854813798170000005278459035221143470_);}
	.st3{fill:#e6007e;}
	.st4{fill:#1D1D1B;}
	.st5{opacity:0.35;fill:#5a0031;enable-background:new    ;}
	.st6{fill:#FACBAF;stroke:#1D1D1B;stroke-width:2.25;stroke-miterlimit:10;}
	.st7{fill:#FBD6C4;stroke:#1D1D1B;stroke-width:2.25;stroke-miterlimit:10;}
	.st8{fill:none;stroke:#1D1D1B;stroke-width:2.25;stroke-miterlimit:10;}
	.st9{fill:none;}
	.st10{fill:#ECBC9D;}
	.st11{fill:#DAAA8C;}
	.st12{fill:#575755;}
	.st13{fill:#424240;}
</style>
<path class="st0" d="M278.4,253.1l-55.7-62.4l-88.8-6.4c0,0-42.7,32.3-42.4,33.4s1.3,48.2,1.3,48.2s39.3,48.6,44,50.5
	s93.4-32.2,93.4-32.2L278.4,253.1L278.4,253.1z"/>
<path class="st1" d="M55.2,354.6c10.9,3.6,24.3,3.2,24.3,3.2s23.5,4.5,29.7-0.2c10-7.6,9.1-22.1,3.1-26
	c-6.5-4.2-31.5-13.7-46.7-15.1s-17.9,1-21.5,5.2c-16.5,19,5.4,41.7,5.4,41.7s33.1,27.1,54.9,35.4c21.8,8.3,37,22.8,39.4,25.3
	c2.4,2.5,29.4,24.4,48.9,29.1s202.5,123.2,202.5,123.2l15.8-184.2c0,0-94.5-64.5-98.7-73.1c-11.3-23.7-16.1-44.4-16.8-53.1
	c-0.7-8.7-6.2-37.4-16-58.8c-12.6-27.7-47.7-37.5-64.6-46.1c-16.9-8.6-25.1-9.8-34.3-7.6c-7.8,1.9-41.7,20-47.8,23.2
	c-3.7,2-27.9,8.4-27.9,8.4s-9-0.6-8,13.6c0.8,10.9,8.9,22.7,34.4,22.4L55.2,354.6z"/>
<g>
	<defs>
		<path id="SVGID_1_" d="M189.5,209.8c0,0,15.8,14.8,20.4,19.7c4.6,4.9,6.8,7.6-11.2,25s-25.4,48.8-25.4,48.8l-0.9,15.4l2,22.2
			l3,11.3l6.5,22.1c0,0,1.8,4.2,0.9,8.1c-0.3,1.3-21.4,54.5-21.4,54.5l-36-2l-31.3-25.8l-24.6-32.7l12.6-17.9c0,0,17.9,4.3,25.3-1.4
			c7.4-5.7,11.6-16.1,3.1-26c-8.5-9.9-19.7-65.2-19.7-65.2l22.3-41.7l47.3-31L189.5,209.8L189.5,209.8z"/>
	</defs>
	<clipPath id="SVGID_00000127746649717515028460000001425687522628936866_">
		<use xlink:href="#SVGID_1_"  style="overflow:visible;"/>
	</clipPath>
	<g style="clip-path:url(#SVGID_00000127746649717515028460000001425687522628936866_);">
		<path class="st3" d="M234.8,278.9c1.4-2.7,0.8-3.9,0.8-3.9c-1.2-2.6-12.6-12.2-17-15.9c-0.1,0-0.1-0.1-0.1-0.1
			c1.8-6,2.5-12.1,2.1-18.2c0.2,0,0.5-0.1,1.1-0.4c5.2-2.4,18.1-9.9,19.8-12.3c0,0,0.8-1.2-0.1-4.2c-0.8-2.9-2.1-3.4-2.1-3.4
			c-2.7-1.1-17.6-0.3-23.3,0.1c-0.5,0-0.7,0.1-0.9,0.2c-3.3-6.4-7.9-12.2-13.8-16.9c0.1-0.1,0.1-0.3,0.2-0.5
			c1.8-5.4,5.2-20,4.6-22.8c0,0-0.3-1.4-3.1-2.8c-2.7-1.4-3.9-0.8-3.9-0.8c-2.6,1.2-12.2,12.6-15.9,17c-0.2,0.3-0.3,0.4-0.4,0.6
			c-6.8-1.8-13.7-2.2-20.4-1.3c-0.1-0.2-0.2-0.4-0.3-0.7c-2.6-5.1-10.7-17.6-13.1-19.2c0,0-1.2-0.7-4.2,0.2c-2.9,1-3.3,2.3-3.3,2.3
			c-1,2.7,0.5,17.6,1.1,23.2c0.1,0.9,0.2,0.9,0.4,1c0,0,0,0,0,0c-5,3-9.5,6.8-13.3,11.5c-0.2-0.1-0.4-0.2-0.7-0.3
			c-5.4-1.8-20-5.1-22.8-4.5c0,0-1.4,0.3-2.8,3.1c-1.4,2.7-0.8,3.9-0.8,3.9c1.2,2.6,12.6,12.2,17,15.9c0.2,0.2,0.4,0.3,0.5,0.4
			c-1.5,5.4-2.2,10.9-1.9,16.3c-0.1,0-0.2,0.1-0.4,0.2c-5.2,2.2-18.3,9.5-20.1,11.8c0,0-0.8,1.2,0,4.2c0.8,3,2,3.5,2,3.5
			c2.6,1.2,17.6,0.7,23.2,0.5c0.1,0,0.2,0,0.3,0c3.2,6.7,7.9,12.8,13.9,17.6c-1.8,5.5-4.9,19.9-4.3,22.7c0,0,0.3,1.4,3.1,2.8
			c2.7,1.4,3-8.8,3-8.8c2.6-1.2,12.5-2.7,16.3-7.3c6.9,2,13.9,2.5,20.8,1.6c0.1,0.1,0.1,0.3,0.2,0.5c2.6,5.1,10.8,17.5,13.3,19.1
			c0,0,1.2,0.7,4.2-0.3c2.9-1,3.3-2.3,3.3-2.3c1-2.7-0.6-17.6-1.3-23.2c0-0.3-0.1-0.5-0.1-0.6c4.8-2.9,9.2-6.5,12.9-10.9
			c0.2,0.1,0.4,0.2,0.7,0.3c5.4,1.8,20,5.1,22.8,4.5C232,281.9,233.4,281.6,234.8,278.9L234.8,278.9z"/>
		<path class="st4" d="M235.6,279.3c0.9-1.8,1.5-3.7,0.3-5.4c-1.2-1.7-2.9-3.2-4.5-4.7c-4-3.7-8.2-7.4-12.5-10.8l0.3,1
			c1.8-6,2.5-12.3,2.2-18.6l-0.5,0.8c1.9-0.4,3.8-1.7,5.4-2.6c2.1-1.1,4.2-2.3,6.2-3.6c2.1-1.2,3.9-2.4,5.8-3.7
			c1.2-0.8,2.6-1.7,3.5-2.8c1-1.2,0.8-3.1,0.4-4.6c-0.4-1.6-1.1-3.8-2.8-4.5c-1.1-0.5-2.6-0.5-3.8-0.6c-2.2-0.1-4.3-0.1-6.5,0
			c-2.7,0.1-5.5,0.2-8.2,0.3c-1.2,0.1-2.4,0.1-3.6,0.2c-0.9,0-2.1-0.1-2.9,0.4l1.4,0.4c-3.4-6.7-8.2-12.6-14-17.3l0.3,1
			c1.5-4,2.4-8.3,3.3-12.4c0.5-2.2,0.9-4.4,1.3-6.7c0.2-1.4,0.5-2.9,0.3-4.3c-0.2-1.3-1.3-2.3-2.4-3c-1.5-1-3.9-2.3-5.8-1.6
			c-1.1,0.3-2,1.3-2.8,2.1c-1.5,1.4-2.9,2.9-4.3,4.4c-1.8,2-3.6,4-5.3,6.1c-1.4,1.7-3.1,3.4-4.4,5.2l0.8-0.3
			c-6.7-1.8-13.7-2.3-20.7-1.3l1,0.6c-0.8-1.8-1.9-3.6-2.9-5.2c-1.3-2.1-2.6-4.2-4-6.3c-1.3-1.9-2.6-3.9-4-5.7c-0.8-1-1.7-2.3-2.8-3
			c-1.6-1-3.9-0.4-5.5,0.2c-1.4,0.5-3.1,1.4-3.5,2.9c-0.4,1.6-0.3,3.1-0.3,4.7c0,2.3,0.2,4.5,0.3,6.8c0.2,2.8,0.4,5.5,0.7,8.3
			c0.1,1,0.2,2.1,0.3,3.1c0.1,1,0.2,1.9,1.3,2.1l-0.5-1.5c-5.1,3.1-9.7,7-13.5,11.6l1.1-0.2c-1.7-0.7-3.6-1.2-5.4-1.7
			c-2.3-0.6-4.6-1.2-7-1.7c-2.3-0.5-4.5-0.9-6.8-1.3c-1.5-0.2-3.1-0.5-4.5-0.4c-1.4,0.1-2.4,1.2-3.1,2.3c-1,1.5-2.3,3.9-1.5,5.7
			c0.4,1,1.3,1.8,2,2.6c1.4,1.5,3,2.9,4.5,4.3c2,1.8,4.1,3.6,6.2,5.4c1.7,1.4,3.3,3,5.2,4.3l-0.3-1c-1.5,5.5-2.2,11-2,16.7l0.5-0.8
			c-3.9,1.6-7.7,3.7-11.4,5.8c-2,1.1-3.9,2.3-5.8,3.5c-1.2,0.8-2.5,1.6-3.4,2.6c-0.9,1-0.9,2.8-0.6,4.1c0.3,1.7,1,4.1,2.7,5
			c1,0.5,2.3,0.6,3.4,0.7c2,0.2,4,0.2,6,0.2c4.9,0.1,9.7,0,14.6-0.2l-1-0.6c3.4,7,8.2,13.1,14.2,18l-0.3-1c-1,3.2-1.8,6.5-2.5,9.7
			c-0.7,3.3-1.5,6.9-1.8,10.3c-0.2,2.3-0.2,3.9,1.8,5.4c1,0.7,2.4,1.8,3.7,1.1c0.9-0.5,1.3-1.6,1.5-2.5c0.6-2.2,0.9-4.5,0.9-6.8
			l-0.5,0.6c2.5-1.1,5.4-1.6,8-2.5c3.1-1.1,6.5-2.5,8.7-5.1l-0.8,0.3c6.8,1.9,13.9,2.5,21,1.6l-1-0.6c1.8,3.9,4.3,7.5,6.7,11
			c1.2,1.8,2.5,3.6,3.8,5.3c0.9,1.2,1.8,2.5,3,3.4c1.2,0.9,2.7,0.7,4.1,0.5c1.7-0.4,4.2-1.2,5-3c0.5-1,0.4-2.4,0.4-3.4
			c0-2.1-0.1-4.2-0.3-6.3c-0.2-2.6-0.4-5.3-0.7-7.9c-0.2-2.2-0.3-4.5-0.7-6.7l-0.3,0.8c4.9-3,9.3-6.7,13.1-11.1l-1.1,0.2
			c2.5,1,5.1,1.6,7.7,2.2c3,0.7,5.9,1.4,8.9,1.9c2.2,0.4,4.4,0.9,6.6,0.8C233.6,282.8,234.7,281,235.6,279.3
			c0.5-0.9-1.2-1.7-1.7-0.7c-0.5,0.9-1.2,2.3-2.2,2.6c-0.4,0.1-1,0.1-1.4,0c-2.2-0.1-4.4-0.6-6.5-1c-2.7-0.5-5.4-1.1-8-1.8
			c-2.3-0.6-4.7-1.1-6.9-2c-0.3-0.1-0.8-0.1-1.1,0.2c-3.6,4.3-7.9,7.9-12.7,10.8c-0.3,0.1-0.4,0.5-0.3,0.8c0.3,1.7,0.4,3.5,0.6,5.2
			c0.2,2.1,0.4,4.1,0.6,6.2c0.3,3.6,0.8,7.5,0.4,11.1c-0.1,1.1-0.6,1.6-1.6,2.2c-1.1,0.6-2.6,1.1-3.9,1.1c-0.2,0-0.6-0.1-0.7-0.1
			c-0.3-0.1,0.1,0.1-0.2-0.1c-1-0.8-1.8-1.9-2.6-2.9c-1.2-1.6-2.4-3.2-3.5-4.9c-2.5-3.6-5.1-7.3-6.9-11.3c-0.2-0.3-0.6-0.6-1-0.6
			c-6.9,0.9-13.8,0.4-20.5-1.5c-0.3-0.1-0.6,0-0.8,0.3c-2.1,2.5-5.5,3.8-8.6,4.8c-2.4,0.8-5.1,1.2-7.4,2.3c-0.3,0.1-0.5,0.3-0.5,0.6
			c0,1.6-0.2,3.1-0.5,4.7c-0.2,1-0.4,2.2-0.9,3.1c-0.1,0.2-0.2,0.4-0.4,0.5c0.2-0.1-0.2-0.1-0.4-0.3c-0.5-0.3-1-0.6-1.4-1
			c-0.3-0.3-0.6-0.6-0.7-0.9c-0.1-0.2,0,0.2,0,0c0-0.1,0-0.3,0-0.5c-0.1-1,0.1-2.1,0.2-3.1c0.4-3.1,1-6.1,1.6-9.1
			c0.7-3.2,1.5-6.5,2.5-9.6c0.1-0.4,0-0.7-0.3-1c-5.7-4.7-10.4-10.6-13.6-17.2c-0.2-0.4-0.6-0.6-1-0.6c-3.8,0.2-7.6,0.2-11.4,0.3
			c-3.6,0-7.3,0.2-10.9-0.5c-0.3-0.1-0.5-0.1-0.8-0.2c0.2,0.1-0.2-0.1-0.2-0.2c-0.4-0.5-0.6-1-0.9-1.5c-0.5-1.2-0.8-2.6-0.6-3.9
			c0-0.2,0.1-0.5,0.2-0.7c0.1-0.2-0.1,0.1,0.1-0.1c0.9-1,2.1-1.7,3.1-2.4c1.6-1.1,3.3-2.1,5-3c3.8-2.2,7.7-4.4,11.8-6.1
			c0.4-0.2,0.6-0.4,0.5-0.8c-0.2-5.3,0.4-10.7,1.9-15.8c0.1-0.4,0-0.8-0.3-1c-1.4-1-2.7-2.2-4-3.4c-1.7-1.4-3.3-2.8-5-4.3
			c-2.7-2.3-5.6-4.7-7.8-7.6c-0.7-1-0.5-1.8,0-3.1c0.5-1.2,1.5-3.2,2.8-3.5c1.2-0.2,2.6,0.1,3.8,0.3c2,0.3,4.1,0.7,6.1,1.1
			c2.4,0.5,4.7,1,7.1,1.7c1.9,0.5,4,0.9,5.8,1.7c0.3,0.2,0.8,0.1,1.1-0.2c3.7-4.5,8.2-8.3,13.2-11.4c0.7-0.4,0.2-1.4-0.5-1.5
			c0.6,0.1,0.2,0.4,0.3-0.2c0-0.1,0-0.3,0-0.4c0-0.4-0.1-0.7-0.1-1.1c-0.1-1-0.2-1.9-0.3-2.9c-0.2-2.2-0.4-4.3-0.6-6.5
			c-0.3-3.6-0.7-7.4-0.3-11.1c0.1-1.2,0.6-1.7,1.7-2.2s2.6-1.1,3.9-1c0.2,0,0.6,0.1,0.7,0.1c0.3,0.1-0.1-0.1,0.2,0.1
			c1,0.8,1.7,1.9,2.5,2.9c1.2,1.6,2.4,3.3,3.6,5c1.4,2,2.7,4.1,3.9,6.2c1,1.7,2.1,3.4,2.9,5.2c0.1,0.3,0.6,0.6,1,0.6
			c6.8-0.9,13.6-0.5,20.2,1.3c0.3,0.1,0.7,0,0.8-0.3c1-1.5,2.3-2.8,3.4-4.1c1.4-1.6,2.8-3.2,4.2-4.8c2.4-2.7,4.8-5.7,7.7-7.9
			c0.2-0.1,0.4-0.3,0.6-0.4c0.2-0.2,0.3-0.1,0.2-0.1c0.7-0.2,1.5,0.1,2.1,0.3c1.1,0.4,2.3,1.1,3,1.9c0.2,0.2,0.3,0.4,0.4,0.6
			c0.1,0.3,0-0.2,0,0.2c0.1,1.3-0.1,2.7-0.3,3.9c-0.3,1.9-0.7,3.8-1.1,5.7c-0.9,4.3-1.8,8.8-3.4,13c-0.1,0.4,0,0.8,0.3,1
			c5.6,4.5,10.2,10.1,13.5,16.5c0.3,0.5,0.9,0.7,1.4,0.4c0.5-0.2,1.6-0.1,2.2-0.1c1-0.1,1.9-0.1,2.9-0.2c2.2-0.1,4.4-0.2,6.5-0.3
			c3.6-0.1,7.3-0.4,10.9,0.2c0.3,0.1,0.6,0.1,0.8,0.2c0.4,0.2,1,1.4,1.2,2c0.4,1.1,0.8,2.5,0.5,3.7c0,0.2-0.1,0.4-0.2,0.6
			c0.1-0.1,0,0-0.2,0.3c-2.3,2.4-5.6,4.1-8.4,5.8c-2.1,1.3-4.2,2.5-6.3,3.6c-1.7,0.9-3.6,2.3-5.5,2.7c-0.4,0.1-0.6,0.5-0.5,0.8
			c0.4,6-0.4,12-2.1,17.7c-0.1,0.4,0,0.7,0.3,1c3.9,3.1,7.7,6.4,11.4,9.8c1.6,1.5,3.3,3,4.7,4.7c0.3,0.3,0.7,0.9,0.8,1.1
			c0.3,0.9-0.4,2.4-0.8,3.3C233.5,279.5,235.2,280.3,235.6,279.3L235.6,279.3z"/>
		<path class="st3" d="M211.7,348.1c-0.5-2.6-1.5-3.1-1.5-3.1c-2.2-1.2-14.9-1.7-19.7-1.9c-0.1,0-0.1,0-0.2,0
			c-1.8-5-4.6-9.5-7.9-13.4c0.1-0.1,0.3-0.4,0.5-0.8c2.3-4.3,7.1-16.1,7-18.5c0,0-0.1-1.2-2.2-2.8c-2.1-1.6-3.2-1.2-3.2-1.2
			c-2.4,0.6-12,8.9-15.7,12.1c-0.3,0.3-0.5,0.4-0.5,0.6c-5.5-2.7-11.7-4.2-18-4.3c0-0.1-0.1-0.3-0.1-0.4
			c-4.1-12.7-6.8-16.2-8.6-17.8c0,0-0.9-0.8-3.5-0.3c-2.6,0.5-3.1,1.5-3.1,1.5c-1.2,2.2-1.8,14.9-2,19.7c0,0.3,0,0.5,0,0.6
			c-5.5,2.2-10.4,5.6-14.5,9.7c-0.1-0.1-0.3-0.2-0.6-0.3c-4.4-2.1-16.4-6.4-18.8-6.2c0,0-1.2,0.1-2.7,2.3c-1.5,2.2-1.1,3.2-1.1,3.2
			c0.7,2.3,9.4,11.6,12.7,15.2c0.5,0.6,0.6,0.5,0.8,0.4c0,0,0,0,0,0c-1.8,4.6-2.9,9.6-3.1,14.7c-0.2,0-0.4,0.1-0.6,0.2
			c-4.6,1.6-16.2,6.9-17.8,8.7c0,0-0.8,0.9-0.3,3.5c0.5,2.6,1.5,3.1,1.5,3.1c2.2,1.2,14.9,1.7,19.7,1.9c0.2,0,0.4,0,0.5,0
			c1.7,4.4,4.1,8.5,7.1,12c-0.1,0.1-0.1,0.2-0.2,0.3c-2.4,4.2-7.5,15.9-7.5,18.3c0,0,0,1.2,2.1,2.8c2.1,1.6,3.2,1.3,3.2,1.3
			c2.4-0.6,12.3-8.6,16-11.6c0.1-0.1,0.1-0.1,0.2-0.1c5.6,2.9,11.9,4.5,18.5,4.7c1.6,4.6,7,16,8.8,17.6c0,0,0.9,0.8,3.5,0.3
			c2.6-0.5,3-1.5,3-1.5c1.1-2.1,1.6-14.2,1.8-19.3c5.7-2.2,10.7-5.5,14.9-9.7c0.1,0.1,0.2,0.1,0.4,0.2c4.4,2.1,16.4,6.3,18.9,6.1
			c0,0,1.2-0.1,2.7-2.3c1.4-2.2,1-3.3,1-3.3c-0.7-2.3-9.5-11.6-12.8-15.1c-0.2-0.2-0.3-0.3-0.4-0.4c1.8-4.4,2.9-9.2,3.1-14.1
			c0.2,0,0.3-0.1,0.6-0.2c4.6-1.6,16.2-6.9,17.8-8.7C211.4,351.6,212.2,350.7,211.7,348.1L211.7,348.1z"/>
		<path class="st4" d="M213.5,348c-0.4-1.9-1.1-3.9-3.1-4.6c-1.9-0.7-3.9-0.8-5.9-1c-4.8-0.5-9.7-0.8-14.5-0.9l2,1.1
			c-1.9-5-4.7-9.7-8.2-13.8l0.1,2c1-1.2,1.7-3,2.3-4.4c0.9-1.9,1.7-3.8,2.4-5.7c0.8-1.9,1.5-3.8,2.1-5.7c0.4-1.3,0.9-2.7,1-4
			c0.1-1.6-1-2.9-2.1-3.9c-1.4-1.3-3.6-2.7-5.6-2.3c-1.1,0.2-2.2,0.9-3.1,1.6c-1.6,1.1-3.1,2.3-4.6,3.5c-1.8,1.4-3.6,2.9-5.3,4.4
			c-0.8,0.7-1.6,1.4-2.4,2c-0.7,0.6-1.6,1.2-2.1,2.1l2.4-0.7c-6-2.8-12.4-4.3-19-4.5l2.1,1.6c-1.3-4.5-3-9.1-5.1-13.3
			c-1.1-2.1-2.3-4.2-4-5.8c-1-0.9-2.3-1.2-3.6-1.2c-1.9,0-4.5,0.5-5.8,2c-0.7,0.8-0.9,2-1,3.1c-0.3,1.8-0.5,3.5-0.7,5.3
			c-0.2,2.4-0.4,4.8-0.5,7.2c-0.1,2-0.4,4.1-0.2,6.1l1.1-1.7c-5.7,2.4-10.9,5.7-15.2,10.1l2.1-0.4c-3.3-1.9-7.2-3.1-10.9-4.3
			c-2-0.7-3.9-1.3-6-1.8c-1.1-0.3-2.4-0.7-3.6-0.5c-2,0.2-3.5,2.2-4.5,3.8c-0.7,1.3-1.2,2.8-0.5,4.2c0.6,1.3,1.5,2.4,2.4,3.5
			c1.3,1.6,2.7,3.2,4.1,4.8c1.5,1.7,3.1,3.4,4.7,5.1c1.3,1.5,2.9,3.8,5.1,2.8l-2.9-2.2c-1.9,4.8-3,9.9-3.2,15.1l1.1-1.2
			c-3.6,0.9-7.1,2.8-10.5,4.3c-1.7,0.8-3.5,1.7-5.2,2.6c-1.1,0.6-2.5,1.3-3.4,2.3c-1,1.1-1,2.8-0.9,4.2c0.2,1.7,0.8,3.8,2.3,4.9
			c1,0.7,2.3,0.9,3.5,1.1c1.8,0.3,3.6,0.5,5.4,0.6c2.4,0.2,4.7,0.3,7.1,0.5c1.9,0.1,3.8,0.3,5.7,0.2l-2-1.1
			c1.8,4.5,4.3,8.7,7.3,12.4l-0.3-1.7c-1.9,3.2-3.4,6.6-4.8,10c-0.7,1.7-1.4,3.4-2,5.2c-0.4,1.2-0.9,2.4-1,3.7
			c-0.1,1.5,0.9,2.9,2,3.9c1.4,1.3,3.4,2.7,5.4,2.5c1.1-0.1,2.1-0.8,3.1-1.4c1.5-0.9,2.8-1.9,4.2-3c3.3-2.5,6.6-5.1,9.8-7.8
			l-1.8,0.1c6.1,3.1,12.7,4.7,19.5,4.9l-2-1.1c1.2,3.3,2.7,6.6,4.3,9.8c1.3,2.7,2.6,5.9,4.6,8c1.1,1.1,2.6,1.4,4.1,1.4
			c1.8-0.1,4.1-0.6,5.4-2c0.7-0.8,0.8-1.8,1-2.8c0.3-1.7,0.5-3.4,0.6-5c0.4-4.2,0.5-8.4,0.7-12.5l-1.1,1.2
			c5.8-2.3,11.1-5.7,15.6-10.1l-2.1,0.4c3.2,1.7,6.7,2.8,10.1,4c1.9,0.7,3.9,1.3,5.8,1.8c1.3,0.3,2.7,0.8,4,0.7c1.5,0,2.7-1,3.6-2.1
			c1.1-1.3,2.3-3.3,1.9-5.2c-0.2-1.1-1.1-2.2-1.8-3.1c-1.1-1.5-2.3-2.9-3.5-4.3c-1.5-1.7-3-3.4-4.6-5c-1.3-1.4-2.6-3-4.1-4.2l0.6,2
			c1.8-4.6,2.9-9.5,3.2-14.5l-1.1,1.2c2.1-0.6,4.1-1.5,6.1-2.4c2.4-1.1,4.9-2.2,7.2-3.4c1.7-0.9,3.5-1.7,5-2.9
			C213.8,352.1,213.9,350,213.5,348c-0.3-2.1-4-2.1-3.6,0.2c0.1,0.7,0.2,1.4,0.1,2.1c0,0.1-0.3,0.6-0.1,0.4c0.3-0.4-0.4,0.3,0,0
			c-0.2,0.2-0.5,0.4-0.7,0.5c-1.6,1.1-3.3,1.9-5.1,2.8c-3.7,1.8-7.7,3.9-11.7,5c-0.5,0.2-1,0.7-1.1,1.2c-0.3,4.7-1.3,9.3-3,13.6
			c-0.3,0.8,0,1.5,0.6,2c2.3,2.1,4.4,4.6,6.5,6.9c1.9,2.1,4.5,4.8,5.8,7c0.1,0.2,0.2,0.3,0.3,0.5c0.3,0.5,0-0.1,0-0.1
			c0.1,0,0,0,0,0.2c-0.1,0.4-0.2,0.7-0.3,1c-0.4,0.9-1.1,1.8-1.9,2.4c-0.1,0.1-0.3,0.2-0.4,0.2c-0.1-0.3,0.6,0.2,0,0
			c0.4,0.1-0.1,0-0.2,0c-0.2,0-0.5-0.1-0.7-0.1c-0.7-0.1-1.3-0.3-2-0.5c-1.6-0.4-3.2-0.9-4.7-1.5c-3.4-1.2-7-2.3-10.3-4
			c-0.7-0.4-1.6-0.2-2.1,0.4c-4,4-8.8,7.1-14.1,9.2c-0.5,0.2-1.1,0.6-1.1,1.2c-0.1,3.3-0.3,6.5-0.5,9.8c-0.1,1.7-0.2,3.5-0.4,5.2
			c-0.1,0.7-0.2,1.3-0.3,2c0,0.3-0.1,0.6-0.2,0.8c-0.1,0.4-0.1,0.3-0.1,0.5c-0.1,0.2-0.1,0.3-0.2,0.5c-0.1,0.3,0.3-0.2,0.1-0.1
			c-0.2,0.2-0.8,0.5-1.4,0.7c-0.9,0.3-1.7,0.2-2.6,0.2c0.2,0,0,0,0,0c-0.1,0-0.5-0.5,0.2,0.1c-0.1-0.1,0.3,0.4,0,0
			c-1.6-2-2.8-4.6-4-7c-1.6-3.2-3.1-6.6-4.3-10c-0.3-0.8-1.2-1.1-2-1.1c-6.1-0.2-12.1-1.8-17.6-4.6c-0.5-0.2-1.4-0.3-1.8,0.1
			c-2.5,2.1-5,4.1-7.6,6c-2.5,2-4.9,3.8-7.6,5.3c-0.3,0.1-0.4,0.2-0.3,0.1c-0.1,0.1-0.3,0.1-0.4,0.1c0.1,0,0.5-0.2,0.3-0.1
			c-0.1,0.1-0.2-0.1,0.1,0c-0.2-0.1-0.6-0.2-0.9-0.4c-0.8-0.5-1.5-1.1-2-1.8c-0.1-0.1-0.1-0.3-0.2-0.3c0.2,0.2,0.1,0.1,0,0.1
			c-0.1-0.1-0.1,0.4,0,0c0.7-2.5,1.7-5.3,2.8-7.9c1.4-3.4,2.9-6.8,4.8-10c0.3-0.5,0.1-1.2-0.3-1.7c-2.9-3.5-5.2-7.4-6.9-11.6
			c-0.3-0.7-1.2-1.2-2-1.1c-3.1,0.1-6.4-0.3-9.5-0.5c-3.1-0.2-6.2-0.4-9.3-1.1c-0.1,0-0.2,0-0.3-0.1c0.5,0.2,0.1,0,0,0
			c-0.2,0-0.7-0.4,0.1,0.1c-0.2-0.1,0.1-0.1,0.1,0.1c0-0.1-0.2-0.2-0.2-0.2c-0.1-0.1-0.3-0.6-0.4-0.9c-0.3-0.9-0.5-2-0.2-2.9
			c0-0.1,0.1-0.3,0.2-0.4c-0.2,0.5-0.2,0.1,0,0.1c0.2,0-0.1,0.1,0,0c0.1-0.1,0.2-0.1,0.2-0.2c0.2-0.2,0.4-0.3,0.7-0.5
			c0.6-0.4,1.2-0.7,1.8-1c1.5-0.8,2.9-1.5,4.4-2.3c3.3-1.6,6.8-3.4,10.4-4.3c0.5-0.1,1.1-0.7,1.1-1.2c0.2-4.9,1.2-9.7,3-14.3
			c0.7-1.7-1.5-2.8-2.9-2.2c2.5-1.2,2.1,0.6,1.6-0.1c-0.1-0.1-0.2-0.3-0.3-0.4c-0.2-0.2-0.4-0.4-0.6-0.7c-0.5-0.6-1.1-1.2-1.6-1.8
			c-1.2-1.3-2.4-2.7-3.6-4c-1.9-2.1-4.4-4.8-5.7-7c-0.1-0.2-0.2-0.3-0.3-0.5c-0.3-0.5,0,0.1,0,0.1c-0.1,0,0,0,0-0.2
			c0.1-0.4,0.2-0.7,0.3-1c0.4-0.9,1.1-1.8,1.9-2.4c0.1-0.1,0.3-0.2,0.4-0.2c0.1,0.3-0.6-0.2,0,0c-0.4-0.1,0.1,0,0.2,0.1
			c0.2,0,0.5,0.1,0.7,0.1c0.7,0.1,1.3,0.3,2,0.5c1.6,0.4,3.2,1,4.7,1.5c3.5,1.2,7.2,2.3,10.4,4.2c0.7,0.4,1.6,0.2,2.1-0.4
			c3.9-3.9,8.6-7.1,13.8-9.2c0.8-0.3,1.1-0.9,1.1-1.7c-0.1-1.4,0.1-2.9,0.2-4.3c0.1-1.9,0.2-3.7,0.4-5.6c0.1-1.8,0.3-3.5,0.5-5.3
			c0.1-0.7,0.2-1.4,0.3-2.1c0-0.3,0.1-0.6,0.2-0.9c0-0.1,0.1-0.2,0.1-0.4c0.1-0.3,0-0.2,0-0.2c0.1-0.2,0.2-0.4,0.2-0.5
			c0.1-0.3-0.2,0.2-0.1,0.1c0.3-0.2,0,0,0.2-0.2c0.4-0.2,0.8-0.4,1.2-0.5c0.6-0.2,1.2-0.3,1.8-0.2c0.1,0,0.9,0.1,0.7,0.1
			c0.1,0,0.2,0.1,0.2,0.1c0,0-0.4-0.2-0.3-0.1c0.1,0,0.2,0.2,0.3,0.3c-0.4-0.5,0.2,0.3,0.4,0.4c0.3,0.3,0.5,0.7,0.8,1
			c0.6,0.8,1,1.5,1.5,2.6c2.1,4.1,3.8,8.5,5.1,12.9c0.3,1,1.1,1.5,2.1,1.6c5.9,0.2,11.7,1.6,17.1,4.2c0.9,0.4,1.9,0.1,2.4-0.7
			c0.1-0.2,1-0.8,1.3-1.1c0.6-0.5,1.2-1,1.8-1.5c1.3-1.1,2.7-2.3,4.1-3.4c2.4-2,4.8-4,7.5-5.6c0.2-0.1,0.5-0.3,0.3-0.2
			c0.3-0.3,0.1,0,0.1-0.1c0,0.1-0.2,0,0,0c0.4,0.1,0.7,0.3,1.1,0.5c0.7,0.4,1.4,1,1.8,1.7c0.2,0.4-0.1-0.2,0.1,0.2
			c-0.1-0.4,0-0.3,0,0.1c-0.6,2.8-1.6,5.5-2.7,8.1c-0.8,1.9-1.6,3.9-2.4,5.7c-0.6,1.3-1.2,3.1-2.1,4.2c-0.5,0.6-0.4,1.5,0.1,2
			c3.3,3.9,5.9,8.2,7.7,13c0.3,0.8,1.2,1.1,2,1.1c4.1,0.1,8.3,0.4,12.4,0.7c1.9,0.2,3.7,0.3,5.6,0.7c0.1,0,1.1,0.3,0.5,0.1
			c0.3,0.1,0.7,0.4,0.1,0c0.2,0.1-0.1,0-0.1-0.1c0,0,0.3,0.3,0.2,0.2c0.3,0.6,0.5,1.1,0.6,1.8C210.3,350.2,213.9,350.2,213.5,348
			L213.5,348z"/>
	</g>
</g>
<path class="st5" d="M198.3,258c0,0,17.9-15.3,17.3-21s-22-22-22-22l-6.9-6.6c0,0-14.7,3.7-22.7,4.5c-8,0.8-29.6,7.7-29.6,7.7
	l-4.8,0.3l-9.9,26c0,0,34.8-21.8,57.1-12.9c11.2,4.5,3.1,16.9,14.6,25.7L198.3,258"/>
<path class="st6" d="M130.4,220.1c16.4,0.2,15.1,18.8,5,28.7c-5.7,5.5-27.3-2.1-42.1-9.1s-25.2-15.5-29.6-21.8
	c-5.7-8-12-26.3-6.3-38.5c4.7-10.1,20.2-13.2,29.9-15c14.9-2.7,60.3-6.3,89.5-9.3"/>
<path class="st7" d="M98.8,240.2c-2-3.3-0.9-11.7,1.3-15c2.8-4,4.6-5.2,8.1-4.7c3.6,0.5,16.4,7.2,20.5,10.2
	c2.9,2.2,1.5,5.1-1.8,13.2c-0.5,1.2-3.5,8.6-12.1,4.8C106.3,244.9,102,245.4,98.8,240.2z"/>
<path class="st6" d="M55,264.6c0,0-13.3-0.9-18.5,13.9c-5,14.3,5,27.7,12,33.4c7,5.6,24.4,2.5,46.5,11.9
	c13.5,5.7,35.3,11.4,41.5,6.2c7.6-6.4,8.8-17.5,8.7-22.3c0-10.8-13.7-15-13.7-15l-39.8-14.3C91.8,278.4,60,264.8,55,264.6L55,264.6z
	"/>
<path class="st7" d="M106.1,298.4c-3.6,1.6-7.2,10.2-3.7,16.7c2.8,5.3,8.4,6.6,12.1,7.8c7.7,2.6,15.1,3.1,16.7,1
	c3.4-4.5,8.3-19.6,2.2-21.8C117.3,296.1,110.3,296.5,106.1,298.4L106.1,298.4z"/>
<path class="st6" d="M64.6,218.8c0,0-14.2,0.1-18.6,14.6c-3.8,12.5,1.7,21.3,5.9,26.8c4.1,5.5,8.5,8.8,25.3,16.5
	s39.9,15.8,51.5,20.1c11.6,4.3,22.4,4,27.4-1.1c4.8-4.9,9.9-13.2,6.9-23.7c-3.1-10.5-16.9-15.5-16.9-15.5l-28.8-11.3l-35.2-18.4
	L64.6,218.8L64.6,218.8z"/>
<path class="st7" d="M118.4,265.7c-3.5,1.7-8.3,9.3-5.6,16.2c2.2,5.5,7.6,7.5,11.1,9.2c7.3,3.4,16.8,4.7,18.7,2.9
	c5.1-5,7.7-19.7,4.2-21.7C131.4,263.9,122.7,263.6,118.4,265.7z"/>
<path class="st8" d="M206,246.2c-4.4,5-10.1,11.2-15.2,18.1c-13.9,18.5-26,50.5-13.7,88.1c2.4,7.2,6,20.1,9.5,28.7"/>
<path class="st8" d="M120,405.8c13.1,7.6,22.3,16.1,24.1,17.9c2.4,2.5,29.4,24.4,48.9,29.1c19.5,4.7,202,122.8,202,122.8l16.3-183.8
	c0,0-93.9-64.8-98.7-73.1c-11.7-20.6-15.1-44.5-16.8-53.1c-5.9-29.6-7.1-36.6-16.9-58.1c-12.6-27.7-46.8-38.2-63.7-46.9
	c-4-2-7.4-3.6-10.6-4.9"/>
<path class="st8" d="M108.7,400.1c-1.1-0.5-2.9-1.2-4-1.7C82.9,390.1,49.7,363,49.7,363s-21.9-22.7-5.4-41.7
	c3.6-4.2,6.2-6.6,21.5-5.2s40.3,10.9,46.7,15.1c6,3.9,6.9,18.4-3.1,26c-6.2,4.7-29.7,0.2-29.7,0.2s-13.3,0.4-24.3-3.2"/>
<path class="st7" d="M82.1,340.2c0,9,17.3,12,22.3,10.6c4.9-1.3,5-13.6,4.8-14.8c-0.4-4.1-8.3-5.2-14.2-6
	C89.1,329.2,82.1,331.2,82.1,340.2L82.1,340.2z"/>
<path class="st3" d="M215.2,136.7c-0.3-3.5-1.7-4.3-1.7-4.3c-2.8-1.9-20-4.2-26.5-5.1c-0.1,0-0.1,0-0.2,0c-1.9-7-5-13.5-9.1-19.2
	c0.2-0.1,0.4-0.5,0.8-1.1c3.6-5.5,11.7-20.9,11.9-24.3c0,0,0.1-1.6-2.6-4.1c-2.6-2.4-4.2-2-4.2-2c-3.3,0.5-17.4,10.6-22.8,14.4
	c-0.5,0.4-0.7,0.5-0.7,0.7c-7.2-4.3-15.3-7.2-24-8.1c0-0.2-0.1-0.4-0.1-0.6c-1.5-6.4-7.2-22.8-9.5-25.3c0,0-1.2-1.2-4.8-0.9
	c-3.5,0.3-4.4,1.6-4.4,1.6c-1.9,2.8-4.3,19.9-5.2,26.5c-0.1,0.4-0.1,0.6-0.1,0.8c-7.8,2.3-14.9,6.2-20.9,11.3
	c-0.2-0.1-0.4-0.3-0.8-0.5c-5.7-3.4-21.4-10.7-24.7-10.8c0,0-1.6,0-3.9,2.8c-2.3,2.8-1.9,4.3-1.9,4.3c0.7,3.3,11.3,17,15.4,22.2
	c0.6,0.8,0.7,0.8,1,0.7c0,0,0,0,0,0c-3.1,6-5.2,12.6-6,19.5c-0.2,0-0.5,0.1-0.9,0.2c-6.4,1.5-22.8,7.3-25.2,9.6c0,0-1.2,1.2-0.9,4.8
	c0.3,3.5,1.7,4.3,1.7,4.3c2.8,1.9,20,4.2,26.5,5.1c0.3,0,0.5,0.1,0.7,0.1c1.8,6.2,4.6,12,8.1,17.2c-0.1,0.1-0.2,0.2-0.3,0.4
	c-3.8,5.4-9.1,22.6-9.4,25.9c0,0-3.2-0.3-0.6,2.2c2.6,2.4,7.1,2.9,7.1,2.9c3.3-0.5,14.7-10.9,20.2-14.6c0.1-0.1,0.2-0.1,0.3-0.2
	c7.3,4.6,15.6,7.7,24.5,8.7c1.6,6.5,5.4,7.2,7.7,9.6c0,0,6.4-2.6,7.3-6.1c5.1-19.7,6.5,2.8,6.5,2.8c1.8-2.7,1.2-1.3,2.1-8.2
	c8-2.3,15.2-6.2,21.4-11.3c0.2,0.1,0.3,0.2,0.5,0.3c5.7,3.3,21.5,10.6,24.8,10.6c0,0,1.6,0,3.9-2.8c2.2-2.8,1.8-4.3,1.8-4.3
	c-0.7-3.3-11.5-16.9-15.6-22.1c-0.2-0.2-0.3-0.4-0.5-0.5c3-5.8,5-12.1,6-18.7c0.2,0,0.5-0.1,0.8-0.2c6.4-1.5,22.8-7.3,25.2-9.6
	C214.4,141.5,215.6,140.4,215.2,136.7L215.2,136.7z"/>
<path class="st4" d="M217,136.6c-0.2-1.9-0.7-4.3-2.4-5.5c-1.3-1-3.2-1.3-4.8-1.7c-5.1-1.3-10.3-2-15.5-2.8c-2.5-0.4-4.9-0.7-7.4-1
	l1.6,1.5c-2-7.2-5.1-13.9-9.5-20l0.1,2c1.6-1.5,2.6-3.9,3.7-5.7c1.4-2.4,2.7-4.9,4-7.3c1.3-2.5,2.4-4.8,3.5-7.3
	c0.7-1.7,1.5-3.4,1.8-5.2c0.3-1.8-0.9-3.7-2.1-5c-1.6-1.7-4.1-3.8-6.7-3.6c-1.6,0.1-3.2,1.1-4.5,1.9c-2.2,1.2-4.3,2.6-6.4,3.9
	c-2.7,1.8-5.3,3.5-7.9,5.4c-1.1,0.8-2.2,1.5-3.3,2.3c-1,0.7-2.3,1.4-3,2.5l2.8-0.5c-7.6-4.6-16-7.5-24.9-8.5l1.6,1.5
	c-0.9-4.9-2.8-9.7-4.5-14.4c-0.9-2.5-1.8-4.9-2.8-7.3c-0.7-1.6-1.4-3.4-2.5-4.7c-1.2-1.5-3.4-1.9-5.2-1.9c-2.2-0.1-5.5,0.3-7,2.2
	c-0.1,0.1-0.4,0.7-0.2,0.3c0.2-0.4-0.2,0.2-0.2,0.4c-0.2,0.3-0.3,0.6-0.4,0.9c-0.3,0.9-0.6,1.7-0.8,2.6c-0.6,2.4-1.1,4.7-1.5,7.1
	c-0.6,3.1-1.1,6.2-1.5,9.3c-0.2,1.3-0.4,2.7-0.6,4c-0.2,1.2-0.5,2.4-0.4,3.5l1.1-1.2c-7.8,2.4-15,6.3-21.3,11.5l2.2,0.2
	c-1.9-1.4-4.2-2.4-6.3-3.5c-2.6-1.3-5.1-2.5-7.7-3.7c-2.4-1.1-4.8-2.1-7.3-3c-1.7-0.6-3.5-1.4-5.3-1.5c-2.4-0.1-4.4,2-5.8,3.7
	c-1.2,1.6-2.4,3.6-1.7,5.6c0.6,1.8,1.7,3.4,2.7,5c1.4,2.2,3,4.4,4.6,6.6c1.9,2.6,3.8,5.1,5.7,7.6c0.7,1,1.5,1.9,2.2,2.9
	c0.9,1.1,2,2.4,3.6,1.8l-2.5-2.3c-3.2,6.3-5.2,13-6.1,20l1.5-1.3c-2.2,0.3-4.5,1.1-6.6,1.8c-2.6,0.8-5.2,1.7-7.8,2.6
	c-2.6,0.9-5,1.9-7.5,2.9c-1.6,0.7-3.4,1.4-4.8,2.5c-1.4,1.1-1.9,3-1.9,4.8c0,2.4,0.3,5.6,2.4,7.1c1.2,0.9,2.9,1.3,4.3,1.6
	c2.4,0.6,4.8,1.1,7.1,1.5c3.1,0.5,6.1,1,9.2,1.5c2.7,0.4,5.4,0.9,8.1,1.1l-2.1-1.6c1.9,6.4,4.7,12.5,8.5,18l-0.1-2
	c-3.1,4.1-4.8,9.4-6.4,14.2c-0.9,2.6-1.7,5.2-2.4,7.8c-0.5,1.7-1,3.4-1.2,5.1l2-1.3c-0.9-0.1-1.9-0.1-2.7,0.5c-1.6,1-0.8,2.9,0.2,4
	c2.1,2.3,5.5,3.6,8.6,3.9c2.1,0.2,4.2-1.5,5.8-2.6c2.7-1.9,5.3-4,7.9-6.1s5.4-4.3,8.2-6.3l-2.2-0.2c7.7,4.8,16.4,8,25.4,9.1
	l-1.6-1.5c0.7,2.7,1.8,5.1,3.9,7c1.3,1.2,3,2.2,4.2,3.3c0.5,0.5,1.4,1,2.2,0.7c2.3-1,4.6-2.3,6.4-4c2.5-2.5,2.5-6.3,4-9.3
	c0.1-0.2,0.2-0.4,0.3-0.6c-0.2,0.3,0.1-0.1,0.2-0.2c0.2-0.3,0-0.1,0.1-0.1c0.2,0-0.1,0.1-0.2,0.1c0.1,0-0.5,0-0.6,0
	c-0.2,0-0.5-0.2-0.5-0.2c-0.5-0.3,0-0.2,0,0c0-0.1-0.1-0.3,0,0.1c0.1,0.2,0.2,0.3,0.2,0.5c0,0.1,0.1,0.2,0.1,0.3
	c0.1,0.2-0.1-0.3,0,0c0.1,0.2,0.1,0.4,0.2,0.6c0.1,0.5,0.2,0.9,0.3,1.4c0.2,1,0.3,1.9,0.5,2.9c0.2,1.3,0.3,2.6,0.4,3.9
	c0.1,1.3,2.5,2.2,3.3,1c0.7-1,1.4-2,1.7-3.2c0.4-1.9,0.5-3.9,0.7-5.8l-1.1,1.2c7.9-2.3,15.4-6.2,21.8-11.4l-2.2-0.2
	c4.2,2.7,8.9,4.7,13.4,6.8c2.4,1.1,4.7,2.1,7.1,3c1.7,0.6,3.5,1.4,5.3,1.6c1.9,0.2,3.5-0.8,4.8-2c1.7-1.5,3.8-4.2,3.3-6.7
	c-0.2-1.4-1.1-2.7-1.8-3.8c-1.3-2.1-2.8-4.2-4.2-6.2c-1.8-2.5-3.6-4.9-5.5-7.3c-1.6-2-3.1-4.2-4.8-6.1l0.3,1.7
	c3.1-6,5.1-12.5,6.1-19.1l-1.5,1.3c4.9-0.8,9.8-2.7,14.5-4.4c2.5-0.9,4.9-1.8,7.3-2.9c1.6-0.7,3.4-1.4,4.8-2.5
	C217.2,141.7,217.2,138.9,217,136.6c-0.1-2-3.8-2.1-3.6,0.2c0.1,0.9,0.1,1.9-0.2,2.8c-0.1,0.2-0.2,0.4-0.2,0.5c-0.1,0.4,0,0-0.1,0.1
	c-0.2,0.3,0.2,0-0.2,0.2c-0.3,0.2-0.6,0.4-0.9,0.6c-2.2,1.3-4.7,2.2-7,3.1c-3,1.2-6.1,2.3-9.2,3.3c-2.5,0.8-5,1.8-7.6,2.2
	c-0.8,0.1-1.4,0.5-1.5,1.3c-0.9,6.4-2.9,12.5-5.9,18.3c-0.3,0.5-0.1,1.3,0.3,1.7c1.4,1.5,2.6,3.2,3.8,4.8c1.5,2,3,3.9,4.5,5.9
	c2.5,3.3,5.3,6.7,7,10.4c0.1,0.2,0.2,0.4,0.3,0.6c-0.2-0.4,0,0,0,0.1c0-0.3,0,0.1-0.1,0.4c-0.1,0.4-0.4,1.1-0.7,1.6
	c-0.7,1.1-1.7,2.2-2.8,3c-0.3,0.2-0.4,0.2-0.8,0.3c-0.3,0.1,0.3,0,0.1,0c-0.1,0-0.3-0.1,0.1,0c-1.5-0.4-2.6-0.6-4.1-1.2
	c-2.2-0.8-4.3-1.7-6.5-2.6c-4.6-2-9.4-4-13.5-6.7c-0.6-0.4-1.6-0.7-2.2-0.2c-6.2,5.1-13.3,8.8-21,11.1c-0.6,0.2-1,0.7-1.1,1.2
	c-0.2,1.8-0.4,3.7-0.7,5.5c-0.1,0.4,0.1-0.2-0.1,0.2c-0.1,0.2-0.1,0.3-0.2,0.5c-0.1,0.3,0.1-0.2-0.2,0.3c-0.2,0.3-0.4,0.6-0.6,0.9
	l3.3,1c-0.2-3.2-0.5-6.7-1.7-9.7c-0.7-1.8-2.6-3.7-4.6-2.4c-0.9,0.6-1.5,1.7-1.9,2.6c-0.8,1.8-1.3,3.7-1.8,5.6
	c-0.5,1.9-1.8,3-3.4,4.1c-0.7,0.5-1.5,0.9-2.3,1.3c-0.1,0.1-0.2,0.1-0.3,0.2c-0.3,0.1-0.1,0.1-0.1,0.1c-0.1,0.1-0.2,0.1-0.3,0.1
	l2.2,0.7c-1.2-1.2-2.7-2.1-4.1-3.2c-1.7-1.4-2.7-3.4-3.3-5.5c-0.2-0.8-0.8-1.4-1.6-1.5c-8.4-1-16.5-3.8-23.6-8.3
	c-0.6-0.4-1.5-0.6-2.2-0.2c-4.3,3-8.2,6.4-12.3,9.6c-1.9,1.5-3.7,2.9-5.8,4.2c-0.4,0.2-0.7,0.4-1.1,0.6c-0.1,0,0.1-0.1-0.2,0.1
	c-0.2,0.1-0.8,0.1-0.1,0.1c0.8,0,0-0.1-0.2-0.1c-0.5-0.1-1-0.2-1.5-0.3c-1.4-0.4-2.8-0.9-3.9-1.9c-0.1-0.1-0.2-0.2-0.3-0.3
	c-0.1-0.1-0.1-0.2-0.2-0.3c-0.1-0.2-0.1-0.2,0,0c0.1-0.1-0.4,1-0.4,1c-0.1,0.2-0.1-0.1,0,0c0,0-0.4,0,0,0c0.1,0,0.2,0,0.3,0
	c0.3-0.1,0,0-0.1,0c0.9,0.1,1.9-0.3,2-1.3c0.1-1.5,0.6-3,1-4.5c0.7-2.5,1.5-5,2.4-7.5c0.9-2.6,1.9-5.3,3-7.8c0.8-1.9,1.8-4,3-5.6
	c0.5-0.7,0.4-1.4-0.1-2c-3.4-5-6.1-10.6-7.8-16.4c-0.3-1-1.1-1.5-2.1-1.6c-2-0.1-4.1-0.6-6.1-0.8c-2.5-0.4-4.9-0.7-7.4-1.1
	c-2.5-0.4-4.8-0.8-7.1-1.3c-1.7-0.4-3.4-0.7-4.8-1.3c-0.2-0.1-0.5-0.3-0.7-0.3c0.2,0,0.3,0.1,0.4,0.3c-0.4-0.7-0.8-1.4-0.9-2.5
	c-0.2-1.2-0.3-2.5,0.1-3.6c0-0.1,0.4-1.1,0.2-0.6c0-0.1,0.4-0.4,0-0.1c1.1-0.9,2.6-1.5,3.8-2c2.1-0.9,4.3-1.8,6.5-2.6
	c2.7-1,5.3-1.9,8-2.8c2.2-0.7,4.4-1.6,6.7-1.9c0.8-0.1,1.4-0.5,1.5-1.3c0.9-6.7,2.9-13.1,5.9-19.1c0.7-1.4-1.2-2.8-2.5-2.3
	c1-0.4,1.7,0.9,1.1,0c-0.1-0.2-0.2-0.3-0.4-0.5c-0.3-0.3-0.5-0.7-0.8-1c-0.7-0.9-1.4-1.8-2.1-2.7c-1.5-2-3-3.9-4.5-5.9
	c-2.4-3.3-5.2-6.7-7-10.4c-0.1-0.3-0.2-0.5-0.3-0.8c0.1,0.4,0,0,0-0.1c0,0.3,0-0.1,0.1-0.4c0.1-0.4,0.4-1.1,0.7-1.6
	c0.7-1.1,1.7-2.2,2.9-2.9c0.3-0.2,0.6-0.1,0.8-0.3c0,0-0.3,0-0.3,0c3.4,0.9,7,2.3,10.6,3.9c2.6,1.2,5.1,2.4,7.7,3.6
	c2.1,1,4.4,2.1,6,3.3c0.6,0.4,1.6,0.7,2.2,0.2c6-5,13-8.8,20.5-11.1c0.5-0.2,1.1-0.7,1.1-1.2c0-2,0.5-4.1,0.8-6.1
	c0.4-2.4,0.7-4.9,1.1-7.3c0.7-4.1,1.2-8.5,2.7-12.4c0.1-0.3,0.2-0.5,0.3-0.7c0.1-0.3-0.4,0.3,0-0.1c0.5-0.5-0.4,0.3-0.1,0.1
	c0.1,0,0.1-0.2,0.2-0.2c0.3-0.1-0.3,0.2,0.1-0.1c0.4-0.3,0.9-0.4,1.4-0.6c1.3-0.3,2.9-0.4,4.2-0.1c0.8,0.2-0.3-0.1,0.3,0.1
	c0.5,0.1,0.1,0,0.1,0c0.3-0.1,0.2,0.5,0-0.1c0.1,0.2,0.3,0.4,0.4,0.6c-0.2-0.3,0.3,0.5,0.3,0.6c0.4,0.8,0.9,1.7,1.2,2.6
	c0.9,2.1,1.8,4.3,2.6,6.5c1.8,4.8,3.7,9.8,4.6,14.8c0.1,0.7,0.9,1.5,1.6,1.5c8.1,0.9,16,3.5,23,7.7c1,0.6,2.2,0.6,2.8-0.5
	c-0.3,0.5,0.2,0,0.3-0.2c0.2-0.1,0.3-0.2,0.5-0.3c0.4-0.3,0.7-0.5,1.1-0.8c0.9-0.7,1.9-1.3,2.8-2c2-1.4,4.1-2.8,6.1-4.2
	s4.1-2.7,6.1-4c1.5-0.9,3.3-2,4.6-2.5c0.2-0.1,0.5-0.1,0.7-0.2c0.5-0.2-0.4,0.1-0.1,0c0.3-0.1-0.4-0.1,0,0c0,0,0.5,0.1,0.2,0
	c0.6,0.2,1.2,0.6,1.7,1c1,0.8,2.1,1.8,2.5,3c-0.1-0.2,0.1,0.3,0.1,0.4c-0.1-0.6,0-0.2-0.1,0.1c-0.1,0.5,0,0.1-0.1,0.6
	c-0.1,0.4-0.2,0.7-0.4,1.1c-0.3,1-0.7,1.9-1.1,2.8c-0.9,2.2-2,4.3-3.1,6.4c-1.3,2.5-2.6,5-4,7.4c-1.1,1.9-2.1,4.3-3.6,5.8
	c-0.6,0.6-0.4,1.5,0.1,2c4,5.6,6.9,11.8,8.7,18.4c0.2,0.8,0.8,1.4,1.6,1.5c5.8,0.7,11.7,1.6,17.5,2.7c1.4,0.3,2.8,0.5,4.2,0.8
	c0.6,0.1,1.2,0.3,1.9,0.4c0.6,0.2,0.9,0.2,1.2,0.4s0.7,0.2,1,0.4c0.6,0.3-0.2-0.1,0.2,0.1c-0.5-0.2-0.1-0.2,0,0.1
	c0.1,0.1,0.1,0.1,0.2,0.5c0.3,0.8,0.5,1.7,0.6,2.6C213.7,139,217.4,139,217,136.6L217,136.6z"/>
<path class="st8" d="M199.7,220.8c8.8,8.8,15,13.6,13.2,16.8c-1.1,2-3.7,5-6.9,8.6"/>
<path class="st6" d="M204.7,155.9c-10.2-4.1-16.6-4.4-23.7-2.7c-7.8,1.9-40.4,16.6-46.5,19.8c-3.7,2-29.2,11.8-29.2,11.8
	s-9-0.6-8,13.6c0.8,10.9,8.9,22.7,34.4,22.4c0.8,0,1.7,0,2.7-0.1c12.7-0.9,35.1-6.4,45.2-10c5.4-2,7.7-2.2,9.8-0.8
	c2.1,1.5,4.1,4.6,8.9,9.6c0.5,0.5,0.9,0.9,1.4,1.4"/>
<path class="st7" d="M133,176.1c7.8-1.7,9.8,9.2,1.4,12.6c-6.5,2.7-18.4,4.4-25.7,5c-6.5,0.5-7.8-6.3-7.8-6.3s-2.4-1.9,5.1-4.3
	C115.6,180.1,132,176.3,133,176.1L133,176.1z"/>
<path class="st5" d="M137.5,88.4l24.9,7.7c0,0-52.7,6.8-55,43.7c-0.5,7.4-2.2,24.8,11.1,32.5c4.6,2.6,21-2.6,21-2.6l-10.5,3.1
	L102.9,183l-19.2,25.8l-10.9-6.5l8.3-26.8l-8.6-20.1l-25.5-3c0,0,3.7-10.2,5.7-10c2,0.2,20-2.2,20-2.2l8.3-28.3L64.2,93.1l4.1-3.6
	L93,98.9l22.3-13.8l5-22.8C120.3,62.3,127.2,46.4,137.5,88.4L137.5,88.4z"/>
<path class="st5" d="M162.1,267.7c0,0,17.7,6.3,22.3,3.8c1.5-0.8-1.8,1.5-5.9,12.6c-1.8,4.9-1.8,6.6-1.8,6.6l-15.1,0.5l0.8-2.8
	c0,0,4.2-4.1,1.6-17.3C163.8,270.1,162.1,267.7,162.1,267.7L162.1,267.7z"/>
<path class="st4" d="M174,244.3c2.3-0.7,18.1-0.3,23.3-1c5.7-0.8,1.7,14.6-9.6,13.1C178.1,255.1,169.9,245.6,174,244.3L174,244.3z"
	/>
<path class="st4" d="M165.8,240.9c-0.7-2.2-9.3-14.3-11.5-18.9c-2.3-4.9-12.3,7.2-5.2,15.1C155.2,244,166.9,244.9,165.8,240.9z"/>
<path class="st5" d="M90.5,370l19.7,0.2c0,0,12.8-3.4,15.8-6.4c4.1-4.3,6.8-11.3,12.1-20.5c5.1-8.9,12.2-13.4,17.8-14.7
	c11.2-2.6,15.6,3.6,15.4,2c-0.5-5.7-0.4-11.3-0.4-11.4c0.3-0.5-1.3,1.2-1.8,1.3c-1.1,0.4-3.1-0.8-4.1-1.3c-5.6-2.4-13.4-3-13.4-3
	s-3,0.5-3.4-2.2c-0.2-1.2-1.8-5.5-1.8-5.5s0,4.8-1.8,10.6c-1.4,4.5-4.8,10.6-9.3,12.8c-6,3-20.9-0.7-20.9-0.7s5.6,5.6,3.1,15
	c-0.5,1.9-2.2,7.3-5.7,10.3c-0.6,0.5-1.3,1.3-2.2,1.8c-1.4,0.8-0.7,0.4-2.8,1.3c-7.2,3.1-17.7,7.7-17.7,7.7"/>
<line class="st9" x1="89.3" y1="367.3" x2="90.5" y2="370"/>
<path class="st10" d="M407.8,418.1l-97.1-72l-29.7,13.1l-24.1,26.4c0,0-6-8.8,2.5-27.6c8.4-18.8,31-36.3,31-36.3l-32-11.9l18.9-26.9
	c0,0-6.9-69.1-19.5-84.4c-8.2-9.9-46.9-21.5-46.9-21.5l-14-11.8l-9,0L140.6,180l-2.9-3.3l0.9-5.9c0,0,38.3-25.2,51.8-19.4
	c18.7,8,67.7,28.8,72.6,37.1c4.9,8.3,25.7,49,25.7,49s0.8,22.4,4.9,29c4.2,6.6,9.4,56,9.4,56l61.7,39.8l45.3,30L407.8,418.1
	L407.8,418.1z"/>
<path class="st10" d="M130,399.1l1.8,0.8l14.5,18.8c0,0,13.6,12.1,19.3,12.5c5.1,0.3,18.5-8.9,18.5-8.9l-2,14.1l8.7-4.5l6.6-6.2
	L200,438l12.7-7.1l34.8-28.5l-2.7,13.3c0,0-1.1,12.6-3,16.3c-7.6,14.6-17.5,19.7-17.5,19.7l171.6,98.1l-2.2,27
	c0,0-37-26.4-57.6-39.5c-20.6-13.1-130.3-80.7-130.3-80.7s-23.3-7.7-37.9-12c-14.6-4.3-37.6-24-47.5-36.2l3.1-4.1"/>
<path class="st10" d="M111.7,389.5l-14.8-8.8l-33.3-22.5L48.7,352l-9.5-21.5c0,0-3.3,22,10.3,34.1c11,9.9,41.9,22.3,58.4,33.2
	L111.7,389.5L111.7,389.5z"/>
<path class="st10" d="M255.2,400.7c0,0,68.5,30.1,111.6,61c27.5,19.7-35.5-11.8-75.5-35.6C268.7,412.5,255.2,400.7,255.2,400.7
	L255.2,400.7z"/>
<path class="st10" d="M259.7,412.2c0,0,34.2,20.3,72.3,48.5c38.1,28.2-34.8-13.3-39.7-16.7C287.3,440.6,259.7,412.2,259.7,412.2
	L259.7,412.2z"/>
<path class="st11" d="M60,187.1c0,0,21-17.4,18.8-11.8c-3.9,9.5-5,37.6-5,37.6s10.7-12.1,18.3-12.6c3.5-0.2,5.7,7.1,6.9,10.1
	c4.1,9.7,30.8,8.2,30.8,8.2s17.3,7.7,9.2,24.9c-1.2,2.5-4.2,3.3-8.3,3c-4.9-0.4,10.4-12.8-12.9-21.9c-23.6-9.3-17.9,11.4-22.8,8.9
	c-5.2-2.6-8.7-4.6-8.7-4.6l-32.4-27.4L60,187.1"/>
<path class="st11" d="M99.4,199.8c0,0,5.2,13.4,22,9.9c16.8-3.5,37.2-6.7,37.2-6.7l20.1-8.2l11.7-17l2.8,19.4l18.1,22l8.8,7.8
	l9.8-2.6l-4.6,6.6l20.4-2.3l-8.9,8.3c0,0-35.1,26.3-44.2,47.7c-6,14.3-8.6,40.7-4.9,55.5c3.7,14.9,11.8,40.7,11.8,40.7
	s6.5,11.6-2.5,16.8c-3.3,1.9-13.9,10.7-18.9,12.6c-8.8,3.3-12.1-0.6-12.1-0.6s23.4-16.7,24.7-20.1c1.3-3.4-10.3-27-10.5-45.7
	c-0.1-18.8-6.3-36.4,0.6-52.3s27.3-42.6,38.8-48.1c0,0-4.6-3.7-5.4-11.2s-25.7-24.9-25.7-24.9l-8.1-1.3c0,0-14.5,10.7-30.5,10.8
	c-16,0.1-32.5,1.8-42.3-3c-8.2-4-8.9-14.2-8.9-14.2"/>
<path class="st11" d="M48.3,238.2c0,0,2.8-10.6,13.8-9c11.8,1.7,31.1,15.8,43.3,20.4c23.5,8.8,42.7,15.1,42.7,15.1s7.1,2.1,7.3,8.4
	c0.2,6.3,1.3,10.4-2.4,15.3c-3.7,4.9-8.5,8.5-8.5,8.5s11.2,0.2,15.4-6.6c4.1-6.9,4-16.7,0-22.5c-4-5.9-11.5-8.5-11.5-8.5l-22.5-8.5
	L86.3,229c0,0-14.9-7.8-18.7-7.9c-3.7-0.1-16.2,4.6-16.2,4.6L48.3,238.2L48.3,238.2z"/>
<path class="st11" d="M125.9,326.2c0,0-1.1,4.4,3.1,4.5c4.2,0.1,6.6-0.9,9.4-7.2c2.8-6.3,5.8-17.5,5.8-17.5l-0.5-6.1l-11.7-3.5
	c0,0-39.2-13-40.3-14.3s-10.7-6-14.1-7.8c-3.3-1.8-17.4-10.1-22.7-9.8c-5.3,0.3-13.6,3.8-13.6,3.8l-4.9,10.1l-0.4,7.5
	c0,0,2.9-7.7,5.9-10.2c5.1-4.3,8.3-4.9,18.3-0.8s16.9,8,27.7,12.9c10.1,4.6,21.9,8.6,30,8.9c5.9,0.3,17.8,2.3,19.2,6.5
	c1.4,4.1,1.5,11.4-1.6,15.1C132.5,322.1,131.1,327,125.9,326.2"/>
<path class="st11" d="M42,329c0,0,5.6-8.9,10.3-11.5c1.6-0.9,5.3-2.3,19.1,0.4s18.5,4.6,28.5,8.8c9.1,3.7,13.7,5,13.9,8
	c1.1,17-3.4,22.7-12.1,22.1c-0.5,0,4.1-1.7,6.7-6.7c2.2-4.2,2-12.2,1.8-15.6c-0.2-2.1-5.2-2.2-5.2-2.2s-7.8-5-19.3-5.7
	c-11.4-0.8-18-6.4-25.1-5.2C53.6,322.5,42,329,42,329L42,329z"/>
<path class="st12" d="M40.5,351.4c0,0-4.4,12.4,61.3,56.3c15.2,10.1,36.3,36.5,52.1,44.7c15.8,8.2,49,14.9,49,14.9l191.9,121.9
	l2.2-25.2L198.9,453.9c0,0-13.4,0.7-40.1-16.1c-16.2-10.2-34.6-24.4-45.4-33c-0.8-0.6-5.3-2.2-3.3-3.5c2-1.3-1-2.7-2.3-3.3
	C87.3,387.7,40.5,351.4,40.5,351.4L40.5,351.4z"/>
<path class="st4" d="M134.8,170.3c0,0,44-13.5,48.6-14.2c4.6-0.7,34,10.2,46.5,17.3c12.5,7.1,38.1,19.5,41.9,31.5
	c3.8,12,26.5,104.4,31.3,117.6c4.8,13.2,87.7,73.6,106.3,83.6l1.1-5.1l1.3-9.8c0,0-24.9-17.3-49.4-34.7
	c-24.7-17.5-45.8-32.6-49.4-43.2c-7.1-21.3-21-81.8-28.6-93.4c-7.6-11.6-1.2-20.8-22.8-35.5c-21.6-14.7-62.9-31.8-71.1-33
	c-6.7-0.9-4.1-4.9-19.2,0.8C151.4,159.6,134.8,170.2,134.8,170.3L134.8,170.3z"/>
<path class="st4" d="M187,386.2l7.7,5.2c0,0,5.5-2.5-4.6-24.4c-10.1-21.9-8.8-45.9-7.8-64.5c0.8-14.7,14.1-37,23.6-45.2
	c5-4.3,20.4-15.2,20.4-15.2l14.3-11.7l-20.7,4.9l6.9-18.2l-12.8,8.6l-11.2-9.3L190.3,204l-1.8-21.9c0,0-4.4,15.4-11.5,20
	c-7.2,4.6-21.5,8.1-21.5,8.1s-4.4,0.8-15.3,3.6c-12,3.1-30,4.8-30,4.8s12.1,5.1,30.4,1.7c18.3-3.4,46.1-11.9,46.1-11.9
	s3.4,1.3,6.9,6.6c3.5,5.3,16.6,16,17.9,18.6c1.3,2.6,3.6,4.8-7.9,15.3c-11.5,10.5-26.8,31.2-29.4,55c-2.6,23.8-1.7,38.7,4.2,51.2
	C181.4,361.5,187,386.2,187,386.2L187,386.2z"/>
<path class="st4" d="M73.4,167.2c0,0-8.1,4.3-10.3,6.4c-2.2,2.2-9,16.8-9,16.8l21.6-14.9l0.9,2.2c0,0-11.6,29.3-11.7,30
	c-0.2,1.7,10.6,8,10.6,8l18.7-12.4c0,0,1.7,7.9,3.5,9.8c2.4,2.6,10.6,5.5,14.5,6.2c3.4,0.6,13.7,1,13.7,1s-16.9-3.3-21.7-6.3
	c-3.3-2.1-7-7.9-7.1-14.1c-0.2-6.2,0.7-16.7,0.7-16.7s-0.2,1.8,0.1,2.1c0.9,1.1-16.1,17.8-16.1,17.8s-12.1,1.5-11.2-1
	c1-2.5,8.3-26.8,8.3-26.8L73.4,167.2L73.4,167.2z"/>
<path class="st4" d="M74.1,175.4c0,0-6.9,2.3-12,13.8c-3.6,8.1-0.5,15.9,3.5,21.6c4,5.7,25.6,17.3,25.6,17.3l10.1,4.4l23.6,10.9
	l8.4,3.7c0,0,2.2-5.8,3-7.7c0.7-1.8,2.3-6.5,2-8.5c-0.9-6.1-6-9.9-6-9.9s4.4-0.6,7.4,3.8c0.3,0.4,3.4,0.7,2.7,5
	c-0.7,4.3,4.1,5.2-5.1,19.7c-3.4,5.4-7.4,2-7.4,2L86.3,229c0,0-14.9-6.4-21.1-9.6c-12.4-6.4-12.6-13.6-14.6-23
	c-2.2-10.4,4.2-21.4,10.6-23.9S74.1,175.4,74.1,175.4L74.1,175.4z"/>
<path class="st4" d="M48.1,228.1c0,0-3.7,16.7,3.4,25.1c3.7,4.4,10.1,8.4,18.8,12.9c8.6,4.5,25.3,13.1,25.3,13.1l22.6,9.2l20.5,6.8
	c0,0,8,1.6,10.1,0.9c2.8-1,4.8-2.3,7.4-4.8c3.3-3.2,4.2-7.3,4.7-13.6c0.6-6.3-1.9-12.9-1.9-12.9s8.9,9.8,4.1,21.1
	c-4.8,11.2-9.5,16.6-22.8,14.2c-13.3-2.3-45.6-15.3-45.6-15.3l-31.5-13.7c0,0-13.2-8.5-15.4-12.3C39,244.2,46.4,226.6,48.1,228.1
	L48.1,228.1z"/>
<path class="st4" d="M292.9,276.6c0,0-7.8-82.9-8.2-22.4c0,4.7,8.7,31.9,4.1,41.2c-2.9,5.7-26.5,15.4-20.2,15.5
	c20.5,0.3,29.2,9.4,29.2,9.4s-1.3,9.1-26.3,25.9c-1.1,0.7,10.9,1.5,22.8-2.5c9.8-3.3,19.8-11.5,19.8-11.5l32.1,19.4
	c0,0-34.8-14.4-45.8-50.7C289.4,264.6,292.9,276.6,292.9,276.6L292.9,276.6z"/>
<path class="st4" d="M255.5,400.6c0,0,60.9,24.2,104,55.1C402.6,486.6,255.5,400.6,255.5,400.6z"/>
<path class="st4" d="M246.2,411.8c0,0-6.6,31.7-27.2,35.9c-20.7,4.2-32.5,3.3-32.5,3.3s34.7-11.3,41.7-22
	C235.1,418.3,246.2,411.8,246.2,411.8L246.2,411.8z"/>
<path class="st4" d="M271.6,346.2c0,0-8.7,13.8-14.4,26.8c-5.7,13,14.6-12.2,14.6-12.2s1.9-13.4,12.8-17.6L271.6,346.2L271.6,346.2z
	"/>
<path class="st4" d="M111.5,396l-27.1-15.2c0,0-13.2-8.6-33-21.9c-14.1-9.4-11-32.4-11-32.4s-4.7,5.4-2.2,15.3
	c2.5,9.9,4.6,15.4,11.2,21.9s43.7,30.1,50.3,33.4s10.3,4.4,10.3,4.4L111.5,396L111.5,396z"/>
<path class="st4" d="M122.4,403.4c0,0,15.4,18,33.3,29.2c26.4,16.5,41.7,15.1,41.7,15.1l5.8,6.7l-10.7,0c0,0-25.3,1-55.2-28
	c-8-7.7-20.6-19-20.6-19L122.4,403.4L122.4,403.4z"/>
<path class="st4" d="M197.5,447.6c0,0,29.1,16.8,46.4,24.3c17.4,7.6,153.1,92,153.1,92l-1,13.2l-152.2-97.7c0,0-13.5-6.2-22.5-11.5
	c-9-5.3-32.8-15.9-32.8-15.9L197.5,447.6L197.5,447.6z"/>
<path class="st4" d="M259.7,412.2c0,0,21.6,10.2,59.7,38.4c38.1,28.2-17.4-6.8-22.4-10.3C292,436.9,259.7,412.2,259.7,412.2
	L259.7,412.2z"/>
<path class="st4" d="M185.1,379.4c0,0-9.5,14.6-18.3,17.4c-1.8,0.6-3.1,13.4-0.9,12.8c10.9-3,23.5-12,28.6-17.9
	C197.4,388.6,185.1,379.4,185.1,379.4L185.1,379.4z"/>
<path class="st4" d="M99.8,187.3c0,0,2,8,4.3,9.4c2.3,1.4,14.8-2.6,24-2.5c9.2,0.1,13.8-4.8,14.8-7.9c1-3.1-5-15-5-15l-3.2,1.7
	c0,0,5.3,8.9,2.8,12.5c-2.5,3.7-8.8,5-17.5,6c-6.7,0.8-14.2,1.2-14.2,1.2L99.8,187.3L99.8,187.3z"/>
<path class="st4" d="M94.3,230.5c0,0,1.7-7.6,5.7-10.3s8.6-1.6,8.6-1.6s9.2,3.5,14.4,5.9c0.8,0.4,8.9,4,10.9,6.4
	c2.5,3,1.6,5.7-1.7,15.6c-3.3,10-6.1-1-6.1-1s4.6-7.9,3.5-11.1c-1.3-3.8-9.7-6.5-13.2-8.2c-2.7-1.3-8.8-4.3-11.4-3.6
	c-2.9,0.7-6.2,9-6.2,9L94.3,230.5L94.3,230.5z"/>
<path class="st4" d="M104.1,212.1c0,0,2.7,2.4,13.8,3.7c6.7,0.8,17.1-0.5,17.1-0.5l-5.2,3.3l-6.9,0.4c0,0-1.4,0.7-6.7-0.2
	c-5.3-1-11.5-3.9-11.5-3.9L104.1,212.1L104.1,212.1z"/>
<path class="st4" d="M106.8,284.7c0,0,1.5,1.6,1.5-4.5c0-6.1,1.4-10.5,3.5-13.1c2.1-2.6,5.4-4.6,8.3-5.1c7.5-1.3,10.7,0.5,14.1,1.5
	c3.6,1.1,11.7,4.5,13.9,6.1c2.1,1.6,4.4,1.6,4,6.9c-0.3,5.2-1.9,11.6-5,17c-1.9,3.3-3.1,4.2-5.2,3.7c-2.1-0.6-0.6-2.8-0.6-2.8
	s6.1-9.5,6.1-14.6s-1.2-7.7-1.2-7.7s-6-1.8-10.8-3.6c-4.8-1.8-11.7-3.9-14.1-3c-2.5,0.9-7.9,4.2-8.4,10s0,9.3,0.9,10
	c0.8,0.7,6.3,5.7,6.3,5.7l-9-3.4L106.8,284.7L106.8,284.7z"/>
<path class="st4" d="M45.1,237.4c0.8,13.9,6.2,19.8,4.2,12.1c-1.5-5.6-0.2-11.3,0.2-14c1.6-9.8,13.6-14.9,20-11.2
	c11.4,6.5,33.2,18.5,45.2,23.8s16.5,7,24,9.4c20.9,6.6,22.4,18,22.4,18s2.9-9.8-6.6-15.6c-8.1-5-35.8-13.6-36.8-13.9
	c-1-0.3-38.8-23.5-38.8-23.5s-13.8-5.4-18.1-4.3C47.5,221.8,45.1,237.4,45.1,237.4L45.1,237.4z"/>
<path class="st4" d="M51.2,261.7c0,0-6.1,1-10.9,4.5c-4.8,3.6-9.8,14.1-9.1,26.5c0.7,12.3,17.5,25.3,17.5,25.3l8-3
	c0,0,22.2,0.5,36.6,8.3c14.3,7.8,22.7,7,30.8,8.8c8.1,1.7,11.9-1.9,11.9-1.9s5.5-2.3,7.2-10.9c1.8-8.6,2-16.8,2-16.8l-1.9-3.7
	l-2.5,3c0,0,0.4,6.8-0.8,11.9c-1.2,5.2-6,13.7-9,14c-3,0.2-20.5-3.6-20.5-3.6s-28.7-9.8-36.9-12.8c-8.2-3-20.9-2.3-27.4-4.9
	c-3.6-1.5-7.6-7.4-8.8-14.1c-1.5-8.8,0.8-16.3,4.5-19.6c10.9-9.8,24.5,0.2,24.5,0.2L51.2,261.7L51.2,261.7z"/>
<path class="st4" d="M112.2,284.6c0,0,0.3-5,2.6-5.7c0.3-0.1,4.4,7.1,4.4,7.1l3.3-3.3l3.7,4.6l4.7,1.6l1.7-2c0,0,0,3.6,2.9,5.1
	l5.8,2.9c0,0,7.5,3.9-6.5,1.2c-14-2.7-16.7-6.2-16.7-6.2L112.2,284.6L112.2,284.6z"/>
<path class="st4" d="M101.3,232.6c0,0,4.5-8.9,2.6-4.9s2,7.2,2,7.2l1.6-3c0,0,2.3,4.7,2.7,5.4c0.4,0.7,3.2-0.5,3.2-0.5
	s2.4-0.9,2.5,0.2c0.1,1.2,0.3,2.2,0.8,2.7c0.5,0.5,4.4-0.8,4.9-0.6c0.5,0.2,1.3,0.4,1.7,2c0.4,1.5,1.6,2.5,1.6,2.5l1.1,2.1l-22-7.5
	L101.3,232.6L101.3,232.6z"/>
<polygon class="st4" points="136.2,176.5 133.7,181.7 127.5,180 124.3,182 121.9,179.9 119,182.3 112.7,185.4 109.1,184 
	105.9,186.3 101.2,187.6 102.8,182.9 130.7,175.9 "/>
<path class="st4" d="M130.3,322.7c1.3-0.8,3.1-5.6,3.1-5.6s3.3-10.1-0.4-13.8c-1.8-1.9-0.2-3.4-0.2-3.4s3.5,1.2,5.8,3.9
	c1.3,1.6,0.7,6.1,0.5,6.8c-0.2,0.7-3.2,11.2-5.7,13.8c-3.2,3.2-3.4,1.8-5.1,1.9c-3.8,0.2-15.2-2.2-15.2-2.2s-9.4-1.5-12.3-7.7
	c-2.9-6.3-0.6-13.3-0.3-13.7c0.3-0.3,2-6.2,6.9-7.1c3.2-0.6,3.2-0.7,12.7,1c9.5,1.7,13.3,2.9,13.4,4.3c0.1,1.4-0.1,2.5-0.1,2.5
	s-21-6.9-25.9-4.2c-2.5,1.4-5.7,8.3-3.9,13.3c1.8,5,7.1,7.4,7.1,7.4s4.9,1.6,5.3,1.9C116.5,322,127.1,324.8,130.3,322.7L130.3,322.7
	z"/>
<path class="st4" d="M103.6,312.5l-0.8-2.3l4.9,7.7l0.6-2.9c0,0,2.8,2.7,2.9,3.6c0.2,0.9,4.1,0.5,4.1,0.5s1.3-1.8,1.7-0.9
	c1.3,2.8,4.3,3.9,5.3,3.9c1.1,0,3.6,0.7,3.6,0.7l1.6-3.4l3.1,4.4c0,0-9.8,1.8-17-0.6s-10.2-6.3-10.2-6.3L103.6,312.5L103.6,312.5z"
	/>
<path class="st4" d="M52,351.9c0,0-6.2,1.7,5.5,4s22.3,1.7,23,1.9c0.7,0.2,1.4-0.2,11.6,0.5c10.2,0.8,15.8,0,17.1-1.1
	c1.4-1.1,6.9-6.3,7.4-10.6c0.5-4.3-0.1-11.2-0.1-11.2L113,332c0,0,1.2,1.1,0.3,8.2s-0.9,12.4-4.8,14.6c-3.9,2.1-8,2.3-18.5,0.9
	s-18.9-2.7-26.3-3C56.3,352.3,52,351.9,52,351.9L52,351.9z"/>
<path class="st4" d="M53.1,317.1c0,0-7.9,4.3-10.5,14.2c-3,11.4,0.1,16.9,0.1,16.9l-3.5-1.6c0,0-2.7-2.5-1.9-9.1
	c0.7-6.6,3.8-13.7,4.4-14C42.1,323.3,46.3,317.5,53.1,317.1L53.1,317.1z"/>
<path class="st4" d="M83.8,344.5l-0.5-2.7c0,0,1.8,0.8,1.9,1.7c0.2,0.9,1.8,0.9,1.8,0.9l0.6,2.4l0.9-0.6l0.9,1.2l1.6-0.6l2,1.3
	c0,0,1.1-1.3,1.2-0.5c0.1,0.8,1.7,1.2,1.9,1.5c0.2,0.4,4.3-1.4,4.3-1.4s1.8-0.8,2.2-0.3c0.3,0.5,2.2,0.7,2.3,1.1
	c0.1,0.4,1.4,1.2,1.4,1.2s-2.5,1.9-8.2,0.6c-5.7-1.3-9.9-1.4-12.2-3.3l-2.3-2L83.8,344.5L83.8,344.5z"/>
<path class="st4" d="M109.2,335.1c0,0,0.6-2.1,1.3-0.6c0.7,1.4,1,4.1,0.6,6.4c-0.5,2.3-0.7,10.1-5,11.4c-3.7,1.2-10.5,1.2-16.6-1.1
	c-6.1-2.3-7-3.9-8.6-6.5c-1.4-2.4,0.1-5.1,0.1-5.1s3.2,4.9,6.6,7.1c3.4,2.2,7.8,3.6,12.1,3.8c4.2,0.3,4.1,1.2,6.5-0.9
	c2.3-2.2,3.2-10.7,3.2-10.7L109.2,335.1L109.2,335.1z"/>
<path class="st4" d="M81.7,345.7c0,0-3.8-3.2-0.6-11.6c1.8-4.6,3.9-5.2,5.4-5.8c3.4-1.3,5-0.8,10.4,0c6.3,0.9,8.7,1.4,11.2,3
	c3.6,2.2,2.9,5.1,2.9,5.1s0.1-1-2.8-2.3c-2.9-1.3-5.4-3-9.6-3.6c-4.2-0.6-5.7-1.2-8.9-0.6c-3.2,0.6-5.2,2-6.4,5.2
	c-1.2,3.2,0.6,8.5,0.6,8.5L81.7,345.7L81.7,345.7z"/>
<path class="st13" d="M63.4,259.2c0,0,13.7-1.1,14.8-23.5l-5.3,14.7L63.4,259.2L63.4,259.2z"/>
<path class="st13" d="M105,254.5c0,0-13.1,1.1-10.6,23.3l2.7-13.5L105,254.5L105,254.5z"/>
<path class="st13" d="M90.4,315.5c0,0-2.1-7.6-1.6-13.8c0.3-3.6,4.5-8.1,3.9-10.4c-0.8-2.8-6.5,9.1-6.6,11.7
	C86.1,306,90.4,315.5,90.4,315.5L90.4,315.5z"/>
<path class="st13" d="M53.8,301.9c0,0,12.6-5.5,6.4-27l-0.5,15.9L53.8,301.9L53.8,301.9z"/>
<path class="st13" d="M50,346.6c0,0,9.8-5,4-22.9L54,337L50,346.6L50,346.6z"/>
<path class="st13" d="M70.9,325.3c0,0-9.3,5.9-1.8,23.2l-1.3-12.7L70.9,325.3z"/>
<path class="st4" d="M61.7,214.2c0,0-4.9-16.4-4.4-21.6c0.9-9.6,4.8-12.5,2.8-5.4c-5,17.6,22.4,30.5,22.4,30.5l15.5,8.4l-3.7,7.9
	l-16.4-9.4L61.7,214.2L61.7,214.2z"/>
<path class="st4" d="M123,403.7c0,0,30.8,30.8,43.9,32.3c4.4,0.5,16.6-6.5,16.6-6.5s-7,10.6-4.7,13.1c3.1,3.3,17.5-5,17.5-5
	s-1.1,6.4,1.1,9.9c8.6,13.9-11.9,6.4-18,5.1c-9.2-2-29.4-15.5-37.5-22.9C136.3,424.7,123,403.7,123,403.7L123,403.7z"/>
<path class="st4" d="M120.8,57.1l-3.4,34.5c0,0-7.5,1.5-12,3.8c-5.9,3.1-10.8,6.2-10.8,6.2L68.6,92l-3.2,1.7L83,113.6
	c0,0-3.8,10.2-4.7,13.8c-0.9,3.4-2.5,13.6-2.5,13.6l-24.9,7l0.2,3l25.2,3.8L86.9,176l-10.4,23.4l7.5,3.8l9.8-2.6l-18,9.2l-8.7-5.8
	l11.8-28.8l-8.2-16L44,154.9c0,0-4.4-9.9,1.8-11.9c6.2-1.9,24-7.9,24-7.9l5.5-19.3L59.4,94c0,0,3.2-8.2,6.5-7.9
	C69.1,86.3,92,96.6,92,96.6L113,85l3.4-26.5L120.8,57.1L120.8,57.1z"/>
<path class="st4" d="M118.1,62.1l5.1-0.9l10.7,28.2c0,0,8.6,0.6,14,2.2c7.1,2.2,13.5,7.3,13.5,7.3l23.4-17.8l2.2,2.5l-15.4,23.3
	c0,0,5.3,7.5,7.3,13.5c1.6,4.8,4.2,13.8,4.2,13.8l27.2,2.8l-1.4,3.3l-24.7,7.8l-21.4,12.1l27.8-8.8c0,0,22.7-5.9,23.7-8.8
	c1-2.9,2.3-9.2,0.6-10.5c-1.8-1.3-18.5-3.2-18.5-3.2l-8.7-1.8c0,0-6.3-15.7-8.6-18.9c-2.3-3.2,13.1-20.6,10-27.7
	c-3.1-7-7.7-1.8-7.7-1.8l-19.7,13c0,0-8.3-2.3-15.2-4.8c-6.9-2.5-10.5-4.7-10.5-4.7s-3-25.4-11.5-26.6S118.1,62.1,118.1,62.1z"/>
<path class="st4" d="M92.8,193.9l5.2-11.1c0,0,2.5-3.5,6.8-5.1c4.6-1.7,32.9-8.8,33.3-9c34-12.6,46.4-20.9,46.4-20.9L181,154
	l-42.3,16.8l-1.2,5.2l-23.3,4.3l-11,3.7l-3.1,4.4l-2.5,5.7L92.8,193.9L92.8,193.9z"/>
<path class="st4" d="M160.5,215.4c0.9,2.9,1.3,11.8,2.6,12.2c1.4,0.4,4.3-2,3.7-2.2c-0.5-0.2-2.7-6.9-3.3-9.2
	c-0.4-1.6-1.4-4-3.3-4.4c-3.1-0.7-2.6,2-2.6,2S159.8,213.2,160.5,215.4L160.5,215.4z"/>
<path class="st4" d="M190.5,239.2c2.1-0.9,4.4-1.7,6.6-2.2c1.5-0.3,3.1-0.6,4.6-0.4c0.5,0.1,1.1,0.3,1.3,0.5
	c0.2,0.2,0.3,0.5,0.4,0.8c0.3,0.7,0.6,1.5,0.8,2.2c0.7,1.9,1.2,3.9,1.6,5.9c0.1,0.5,0.5,1,1,1.1c0.4,0.1,0.9-0.2,0.8-0.7
	c-0.4-1.9-0.9-3.7-1.4-5.5c-0.7-2-1.2-4.8-3.3-5.8c-1.5-0.7-3.3-0.6-5-0.4c-1.8,0.3-3.6,0.8-5.4,1.4c-1,0.3-2.1,0.7-3,1.1
	C188.5,237.9,189.7,239.6,190.5,239.2L190.5,239.2z"/>
<path class="st4" d="M200.8,236.9c-2.9,0.6-11,4.4-12,3.4c-1-1.1-0.3-4.7,0.2-4.3c0.4,0.4,7.4-0.9,9.6-1.4c1.6-0.4,4.2-0.6,5.5,0.8
	c1,1.1,1.5,3.1,1.3,3.8c-0.2,0.8-1.3,0.1-1.3,0.1S203.1,236.5,200.8,236.9L200.8,236.9z"/>
<path class="st4" d="M137,144c1.5-2.3,15.8-13.6,19.9-18.2c4.4-4.9,12.2,11.8,1.1,18.8C148.5,150.7,134.2,148.2,137,144z"/>
<path class="st4" d="M121.6,145.8c-2-2-18.2-10.1-23.2-13.8c-5.3-3.9-9.6,14,2.7,18.6C111.7,154.6,125.1,149.4,121.6,145.8z"/>
<path class="st4" d="M108.4,129c-1.8-2-3.9-3.8-6.1-5.3c-1.4-1-3-2-4.8-2.2c-2.2-0.3-3.4,1.1-4.8,2.6c-1.6,1.7-3,3.5-4.4,5.4
	c-0.5,0.7,1,2.1,1.6,1.3c0.9-1.4,2-2.6,3.1-3.9c0.9-1.1,1.9-2.3,3-3.2c0.4-0.4,0.9-0.5,1.5-0.4c1.4,0.1,2.8,0.9,3.9,1.7
	c1.4,0.9,2.6,2,3.9,3.1c0.6,0.6,1.3,1.2,1.9,1.9C108.2,130.9,109.3,130,108.4,129L108.4,129L108.4,129z"/>
<path class="st4" d="M98.7,123.9c2.5,1.7,8.3,8.5,9.6,7.9c1.4-0.6,2.2-4.2,1.6-4c-0.5,0.2-6.4-3.7-8.3-5.2c-1.3-1-3.6-2.3-5.3-1.4
	c-2.9,1.3-0.8,3.2-0.8,3.2S96.8,122.6,98.7,123.9L98.7,123.9z"/>
<path class="st4" d="M147.3,126.4c1.2-2,2.6-3.9,4.2-5.6c1.1-1.2,2.3-2.4,3.7-3c0.5-0.2,1-0.4,1.6-0.3c0.3,0.1,0.6,0.3,0.9,0.5
	c0.7,0.4,1.3,0.9,2,1.4c1.2,0.8,2.3,1.7,3.4,2.7c0.3,0.3,0.7,0.6,1,0.9c0.1,0.1,0.6,0.6,0.3,0.2c0.3,0.3,0.8,0.7,1.2,0.3
	c0.4-0.3,0.1-1-0.1-1.3c-1.4-1.3-2.8-2.5-4.3-3.7c-1.2-0.9-2.4-1.9-3.7-2.5c-0.7-0.3-1.4-0.4-2.2-0.3c-1.6,0.3-2.9,1.4-4.1,2.5
	c-1.3,1.3-2.5,2.7-3.6,4.2c-0.6,0.9-1.2,1.7-1.8,2.7C145.2,126,146.7,127.4,147.3,126.4L147.3,126.4L147.3,126.4z"/>
<path class="st4" d="M154.4,118.5c-2.1,2.1-6.5,10-7.8,9.7c-1.5-0.3-3-3.7-2.3-3.6c0.5,0.1,5.5-4.9,7.1-6.7c1.1-1.2,3.2-3.3,4.9-2.5
	c1.1,0.5,2.7,1.6,4.3,2.9c2.4,1.8-1.8,0.4-1.8,0.4S156,116.8,154.4,118.5z"/>
<path class="st4" d="M158.6,293.7l4-6c0,0,2.4,1.4,9.3,1c6.9-0.4,8.9-2.2,8.9-2.2l-4.5,8.8C176.2,295.3,167.2,297.7,158.6,293.7
	L158.6,293.7z"/>
<path class="st4" d="M146,300.2l4.6,13.1c0,0,13.2,1.7,17.2,3.8l3.6-3c0,0,0.9-10.3,3-18.3c0,0-8.2,0.4-15.8-2.1
	C158.6,293.7,155.3,301.2,146,300.2L146,300.2z"/>
<path class="st4" d="M100.2,359.3l9.7-1l-20.6,9l1.2,2.7l19.7,0.2l10.1,15.9l-8.7,16.1l1.9,1.7l15.8-12.6c0,0,9.3,6.2,18.3,6.1
	l3.9-0.5l5.9,17.2l3.1-0.7l0.5-18.6c0,0,17-6.7,20.9-12.5c2.5-3.7,0.6-8.9,0.6-8.9l2.6-2.5l6.3,15.1l-26.3,12.9
	c0,0-1.2,18.8-1.8,19.3c-0.6,0.6-6.3,1.9-7.9,0.7c-3.7-2.6-5.6-16.3-5.6-16.3s-11.9-1.2-15.6-3.1c-3.7-1.8-6.9-2.6-6.9-2.6
	l-12.7,11.7l-4.5-1l-2.7-4.3l9.8-16.5c0,0-7.6-10.9-8.6-12.7c-1.1-1.8-17.1-2.1-17.8-2c-0.7,0.1-4.1-1-4.1-1l0.4-5.5L100.2,359.3
	L100.2,359.3z"/>
<path class="st4" d="M152.5,359.5c1.2-2.3,13.8-13.5,17.3-18c3.8-4.8,12,10.1,2.2,17.3C163.5,364.9,150.2,363.5,152.5,359.5
	L152.5,359.5z"/>
<path class="st4" d="M140,360.1c-1.7-2-16.1-10.6-20.4-14.4c-4.6-4-9.9,12.2,1.1,17.4C130.2,367.5,143,363.6,140,360.1z"/>
<path class="st4" d="M129,343.7c-2-2.5-4.4-4.9-7.1-6.6c-1.4-0.9-3.4-1.7-4.9-0.7c-1.9,1.3-2.6,4-2.9,6.1c-0.3,1.7-0.3,3.5-0.2,5.2
	c0.1,0.8,1.7,1.6,1.6,0.4c-0.1-1.3-0.1-2.5,0.1-3.8c0.2-2,0.6-4.4,2.1-6c1.2-1.2,2.5-0.7,3.8,0c1.6,0.9,2.9,2.2,4.2,3.5
	c0.8,0.8,1.6,1.7,2.4,2.7c0.2,0.3,0.8,0.6,1.1,0.3C129.5,344.5,129.2,343.9,129,343.7C129,343.7,129,343.7,129,343.7z"/>
<path class="st4" d="M120.4,338.2c2.2,1.7,7.1,8.4,8.3,8c1.3-0.4,2.3-3.7,1.7-3.6c-0.5,0.1-5.6-3.9-7.3-5.4c-1.1-1-3.1-2.3-4.8-1.7
	c-2.8,1-1,2.9-1,2.9S118.7,336.9,120.4,338.2z"/>
<path class="st4" d="M160.9,342.6c1-1.9,2.2-3.8,3.5-5.4c0.9-1.1,2-2.4,3.3-3c0.4-0.2,1-0.4,1.5-0.3c0.3,0,0.6,0.2,0.8,0.4
	c0.7,0.4,1.4,0.8,2,1.2c1.6,1,3.1,2.1,4.6,3.3c0.3,0.2,0.8,0.4,1.1,0c0.2-0.4-0.1-0.9-0.4-1.2c-1.3-1.1-2.8-2.1-4.2-3.1
	c-1.1-0.7-2.3-1.6-3.5-2.1c-0.6-0.3-1.3-0.3-2-0.1c-1.4,0.4-2.7,1.6-3.6,2.6c-1.1,1.3-2.1,2.7-3,4.1c-0.5,0.8-1,1.7-1.5,2.5
	C159,342.2,160.4,343.5,160.9,342.6L160.9,342.6L160.9,342.6z"/>
<path class="st4" d="M167,334.8c-1.8,2.1-5.4,9.6-6.6,9.5c-1.4-0.2-3-3.2-2.4-3.2c0.5,0,4.8-4.9,6.1-6.6c0.9-1.2,2.7-3.2,4.4-2.6
	c1,0.4,2.6,1.4,4.2,2.4c2.3,1.5-1.7,0.4-1.7,0.4S168.3,333.2,167,334.8L167,334.8z"/>
</svg>
